<?xml version="1.0" encoding="UTF-8"?>
<svg width="735px" height="141px" viewBox="0 0 735 141" version="1.1" xmlns="http://www.w3.org/2000/svg" xmlns:xlink="http://www.w3.org/1999/xlink">
    <!-- Generator: Sketch 52.3 (67297) - http://www.bohemiancoding.com/sketch -->
    <title>Gingermood logo v11</title>
    <desc>Created with Sketch.</desc>
    <g id="Page-1" stroke="none" stroke-width="1" fill="none" fill-rule="evenodd">
        <g id="Gingermood-logo-v11">
            <path d="M98.63,12.77 L98.63,14.06 C98.63,20.67 96.48,22.82 89.87,22.82 L88.86,22.82 C82.25,22.82 80.1,20.67 80.1,14.06 L80.1,12.77 C80.1,6.16 82.25,4.15 88.86,4.15 L89.87,4.15 C96.48,4.16 98.63,6.17 98.63,12.77 Z M97.77,36.32 L97.77,101.94 C97.77,105.24 96.62,106.39 93.32,106.39 L85.42,106.39 C82.12,106.39 81.11,105.24 81.11,101.94 L81.11,36.32 C81.11,33.02 82.12,32.01 85.42,32.01 L93.32,32.01 C96.62,32.01 97.77,33.02 97.77,36.32 Z" id="Shape" fill="#3C1A65" fill-rule="nonzero"></path>
            <path d="M33.44,29.86 C45.07,29.86 54.4,32.01 59.43,34.31 C64.03,36.46 64.74,37.61 64.74,42.21 L64.74,108.84 C64.74,127.65 55.69,140.14 33.15,140.14 C17.64,140.14 8.45,134.83 3.43,126.35 C1.28,123.19 1.85,120.89 5.15,119.17 L10.61,116.16 C14.06,114.44 15.64,114.87 17.93,117.88 C20.95,122.62 25.11,125.2 32.86,125.2 C42.91,125.2 48.08,119.89 48.08,109.69 L48.08,102.51 C43.77,103.66 37.74,105.09 30.85,105.09 C10.32,105.09 0.98,94.32 0.98,76.23 L0.98,60 C0.98,40.49 11.47,29.86 33.44,29.86 Z M34.59,45.08 C23.1,45.08 17.65,49.96 17.65,60.59 L17.65,75.81 C17.65,84.86 23.11,89.88 33.3,89.88 C39.47,89.88 44.5,88.73 48.09,87.87 L48.09,48.38 C48.09,47.38 47.8,47.09 46.8,46.66 C43.63,45.8 39.32,45.08 34.59,45.08 Z" id="Shape" fill="#3C1A65" fill-rule="nonzero"></path>
            <path d="M147.88,29.86 C168.27,29.86 177.75,40.49 177.75,58.72 L177.75,101.94 C177.75,105.24 176.6,106.39 173.3,106.39 L165.4,106.39 C162.1,106.39 161.09,105.24 161.09,101.94 L161.09,59.15 C161.09,49.67 155.92,45.08 145.44,45.08 C139.84,45.08 135.39,45.94 131.65,46.95 C130.93,47.24 130.64,47.81 130.64,48.39 L130.64,101.95 C130.64,105.25 129.63,106.4 126.33,106.4 L118.43,106.4 C115.13,106.4 113.98,105.25 113.98,101.95 L113.98,42.93 C113.98,38.33 114.99,36.61 119.58,34.74 C125.34,32.44 134.1,29.86 147.88,29.86 Z" id="Path" fill="#3C1A65"></path>
            <path d="M302.11,29.86 C324.94,29.86 335.28,43.07 335.28,59.58 L335.28,68.34 C335.28,72.07 333.84,74.51 328.82,74.51 L285.45,74.51 L285.45,79.82 C285.45,89.15 291.34,94.18 301.82,94.18 C310.29,94.18 315.75,91.31 318.76,86.57 C321.06,83.41 322.64,82.98 326.08,84.85 L331.11,87.58 C334.41,89.16 334.84,91.6 332.83,94.76 C327.66,103.23 318.04,108.55 301.81,108.55 C278.26,108.55 268.78,95.48 268.78,77.82 L268.78,60.88 C268.79,40.92 280.43,29.86 302.11,29.86 Z M302.11,43.93 C291.34,43.93 285.45,49.24 285.45,58.58 L285.45,61.74 L318.62,61.74 L318.62,58.58 C318.62,49.25 313.02,43.93 302.11,43.93 Z" id="Shape" fill="#3C1A65" fill-rule="nonzero"></path>
            <path d="M385.11,29.86 C388.41,29.86 389.56,30.87 389.56,34.31 L389.56,40.63 C389.56,43.93 388.41,45.08 385.11,45.08 L379.94,45.08 C374.34,45.08 370.03,45.65 366.3,46.8 C365.01,47.09 364.86,47.81 364.86,48.52 L364.86,101.94 C364.86,105.24 363.85,106.39 360.55,106.39 L352.65,106.39 C349.35,106.39 348.2,105.24 348.2,101.94 L348.2,42.35 C348.2,37.75 349.21,36.03 353.8,34.16 C359.11,32.15 367.73,30.14 380.51,29.85 L385.11,29.85 L385.11,29.86 Z" id="Path" fill="#3C1A65"></path>
            <path d="M473.14,29.86 C492.67,29.86 501.28,40.34 501.28,58.44 L501.28,101.95 C501.28,105.25 500.27,106.4 496.97,106.4 L489.07,106.4 C485.77,106.4 484.62,105.25 484.62,101.95 L484.62,59.01 C484.62,49.82 480.02,45.08 470.69,45.08 C464.95,45.08 460.06,46.52 456.76,47.66 C457.91,50.67 458.34,54.41 458.34,58.43 L458.34,101.94 C458.34,105.24 457.19,106.39 453.89,106.39 L446.14,106.39 C442.84,106.39 441.69,105.24 441.69,101.94 L441.69,59 C441.69,49.81 436.81,45.07 427.62,45.07 C423.17,45.07 419.72,45.64 416.13,46.79 C415.12,47.22 414.98,47.8 414.98,48.51 L414.98,101.93 C414.98,105.23 413.97,106.38 410.67,106.38 L402.77,106.38 C399.47,106.38 398.32,105.23 398.32,101.93 L398.32,42.91 C398.32,38.31 399.47,36.59 403.92,34.72 C409.52,32.42 417.42,29.84 430.05,29.84 C437.66,29.84 443.55,31.42 447.86,34.58 C452.89,32.59 460.79,29.86 473.14,29.86 Z" id="Path" fill="#3C1A65"></path>
            <path d="M547.95,29.86 C569.49,29.86 581.12,40.77 581.12,58.58 L581.12,79.83 C581.12,97.64 569.49,108.55 547.95,108.55 C526.7,108.55 514.92,97.64 514.92,79.83 L514.92,58.58 C514.93,40.77 526.7,29.86 547.95,29.86 Z M547.95,44.94 C537.47,44.94 531.58,49.82 531.58,58.58 L531.58,79.83 C531.58,88.45 537.47,93.47 547.95,93.47 C558.58,93.47 564.46,88.44 564.46,79.83 L564.46,58.58 C564.47,49.82 558.58,44.94 547.95,44.94 Z" id="Shape" fill="#3C1A65" fill-rule="nonzero"></path>
            <path d="M625.93,29.86 C647.47,29.86 659.1,40.77 659.1,58.58 L659.1,79.83 C659.1,97.64 647.47,108.55 625.93,108.55 C604.68,108.55 592.9,97.64 592.9,79.83 L592.9,58.58 C592.9,40.77 604.68,29.86 625.93,29.86 Z M625.93,44.94 C615.45,44.94 609.56,49.82 609.56,58.58 L609.56,79.83 C609.56,88.45 615.45,93.47 625.93,93.47 C636.56,93.47 642.44,88.44 642.44,79.83 L642.44,58.58 C642.44,49.82 636.56,44.94 625.93,44.94 Z" id="Shape" fill="#3C1A65" fill-rule="nonzero"></path>
            <path d="M701.03,29.86 C708.07,29.86 714.1,31.01 718.12,31.73 L718.12,4.59 C718.12,1.29 719.13,0.14 722.43,0.14 L730.33,0.14 C733.63,0.14 734.78,1.29 734.78,4.59 L734.78,96.06 C734.78,100.8 733.63,102.09 729.04,103.96 C723.3,106.11 715.25,108.56 702.19,108.56 C680.79,108.56 671.03,97.93 671.03,79.55 L671.03,59.88 C671.02,40.49 681.07,29.86 701.03,29.86 Z M704.19,45.08 C692.85,45.08 687.68,50.11 687.68,60.3 L687.68,78.97 C687.68,88.3 693.28,93.33 703.76,93.33 C708.93,93.33 713.38,92.76 716.97,91.75 C717.98,91.32 718.12,91.03 718.12,90.17 L718.12,46.95 C714.82,46.23 709.94,45.08 704.19,45.08 Z" id="Shape" fill="#3C1A65" fill-rule="nonzero"></path>
            <g id="Group" transform="translate(191.000000, 29.000000)" fill="#E67E3C">
                <path d="M33,111.14 C17.49,111.14 8.3,105.83 3.28,97.35 C1.13,94.19 1.7,91.89 5,90.17 L10.46,87.16 C13.91,85.44 15.49,85.87 17.78,88.88 C20.8,93.62 25.25,96.2 33,96.2 C40.75,96.2 45.21,93.62 48.22,88.88 C50.52,85.86 52.1,85.43 55.54,87.16 L61,90.17 C64.3,91.89 64.88,94.19 62.72,97.35 C57.7,105.83 48.51,111.14 33,111.14 Z" id="Path"></path>
                <path d="M59.28,4.66 C54.25,2.36 44.92,0.21 33.29,0.21 C11.32,0.21 0.84,10.84 0.84,30.37 L0.84,37.75 L0.84,45.13 C0.84,64.66 11.32,75.29 33.29,75.29 C44.92,75.29 54.26,73.14 59.28,70.84 C63.88,68.69 64.59,67.54 64.59,62.94 L64.59,37.75 L64.59,12.56 C64.59,7.96 63.87,6.81 59.28,4.66 Z M47.93,56.76 C47.93,57.76 47.64,58.05 46.64,58.48 C43.48,59.34 39.17,60.06 34.43,60.06 C22.94,60.06 17.49,55.18 17.49,44.55 L17.49,37.74 L17.49,30.93 C17.49,20.3 22.95,15.42 34.43,15.42 C39.17,15.42 43.48,16.14 46.64,17 C47.65,17.43 47.93,17.72 47.93,18.72 L47.93,56.76 Z" id="Shape" fill-rule="nonzero"></path>
            </g>
        </g>
    </g>
</svg>